<?xml version="1.0" encoding="UTF-8"?>
<svg width="306px" height="106px" viewBox="0 0 306 106" version="1.1" xmlns="http://www.w3.org/2000/svg" xmlns:xlink="http://www.w3.org/1999/xlink">
    <!-- Generator: Sketch 61 (89581) - https://sketch.com -->
    <title>按钮选中</title>
    <desc>Created with Sketch.</desc>
    <defs>
        <linearGradient x1="43.5532108%" y1="100%" x2="43.5532108%" y2="0.152636077%" id="linearGradient-1">
            <stop stop-color="#101D2B" stop-opacity="0.631240568" offset="0%"></stop>
            <stop stop-color="#22344B" offset="100%"></stop>
        </linearGradient>
        <filter x="-6.4%" y="-23.7%" width="112.9%" height="147.4%" filterUnits="objectBoundingBox" id="filter-2">
            <feGaussianBlur stdDeviation="6" in="SourceGraphic"></feGaussianBlur>
        </filter>
        <radialGradient cx="51.0452112%" cy="43.5019892%" fx="51.0452112%" fy="43.5019892%" r="295.692395%" gradientTransform="translate(0.510452,0.435020),scale(0.271429,1.000000),rotate(90.000000),translate(-0.510452,-0.435020)" id="radialGradient-3">
            <stop stop-color="#AFEBFF" offset="0%"></stop>
            <stop stop-color="#5FB3FF" offset="100%"></stop>
        </radialGradient>
    </defs>
    <g id="绿" stroke="none" stroke-width="1" fill="none" fill-rule="evenodd">
        <g id="画板" transform="translate(-107.000000, -171.000000)">
            <g id="按钮" transform="translate(120.000000, 186.000000)">
                <g id="按钮选中">
                    <polygon id="矩形备份-165" fill="url(#linearGradient-1)" points="47.6478227 3.57179564e-15 231.945616 0 231.945616 8.39819951 245.088618 8.39819951 257.399569 22.3486671 257.610183 53.3960024 245.310637 67.1671241 231.945616 67.1671241 231.945616 76 48.0735428 76 48 67.5838657 35.0560098 67.5838657 22.3274641 53.4483301 22.6004309 22.3486671 34.7343571 8.56837094 47.6478227 8.56837094"></polygon>
                    <path d="M50,0 L50,2.977 L35.6118004,2.93084702 L18.6004309,22.3486671 L18.2956453,53.3139624 L35.3274641,72.5258777 L50,72.525 L50,76 L35.2750252,76 L0,38.1287772 L34.8509594,0 L50,0 Z M245.149041,0 L280,38.1287772 L244.724975,76 L230,76 L230,72.525 L244.672536,72.5258777 L261.704355,53.3139624 L261.399569,22.3486671 L244.3882,2.93084702 L230,2.977 L230,0 L245.149041,0 Z" id="形状结合" fill="#3178BD" filter="url(#filter-2)"></path>
                    <path d="M50,0 L50,2.977 L35.6118004,2.93084702 L18.6004309,22.3486671 L18.2956453,53.3139624 L35.3274641,72.5258777 L50,72.525 L50,76 L35.2750252,76 L0,38.1287772 L34.8509594,0 L50,0 Z M245.149041,0 L280,38.1287772 L244.724975,76 L230,76 L230,72.525 L244.672536,72.5258777 L261.704355,53.3139624 L261.399569,22.3486671 L244.3882,2.93084702 L230,2.977 L230,0 L245.149041,0 Z" id="形状结合" fill-opacity="0.679605551" fill="#43879D"></path>
                    <path d="M32.194,72.692 L50,72.943 L50,76 L35.2750252,76 L32.194,72.692 Z M247.806,72.692 L244.724975,76 L230,76 L230,72.943 L247.806,72.692 Z M20.559,15.635 L20.378,60.007 L5.6247312,44.1674816 L0,38.1287772 L5.81708725,31.7645787 L20.559,15.635 Z M259.441,15.635 L274.6356,32.2598429 L280,38.1287772 L274.992215,43.5051294 L259.622,60.007 L259.441,15.635 Z M50,0 L50,2.991 L32.15,2.954 L34.8509594,0 L50,0 Z M245.149041,0 L247.85,2.954 L230,2.991 L230,0 L245.149041,0 Z" id="形状结合" fill="url(#radialGradient-3)"></path>
                    <path d="M219,64 L58,64 M58,12 L219,12" id="形状" stroke-opacity="0.1" stroke="#FFFFFF"></path>
                    <path d="M58,63 C58.5522847,63 59,63.4477153 59,64 C59,64.5522847 58.5522847,65 58,65 C57.4477153,65 57,64.5522847 57,64 C57,63.4477153 57.4477153,63 58,63 Z M219,63 C219.552285,63 220,63.4477153 220,64 C220,64.5522847 219.552285,65 219,65 C218.447715,65 218,64.5522847 218,64 C218,63.4477153 218.447715,63 219,63 Z M58,11 C58.5522847,11 59,11.4477153 59,12 C59,12.5522847 58.5522847,13 58,13 C57.4477153,13 57,12.5522847 57,12 C57,11.4477153 57.4477153,11 58,11 Z M219,11 C219.552285,11 220,11.4477153 220,12 C220,12.5522847 219.552285,13 219,13 C218.447715,13 218,12.5522847 218,12 C218,11.4477153 218.447715,11 219,11 Z" id="形状结合" fill-opacity="0.5" fill="#FFFFFF"></path>
                </g>
            </g>
        </g>
    </g>
</svg>